<?xml version="1.0" encoding="UTF-8" standalone="no"?>
<!-- Created with Inkscape (http://www.inkscape.org/) -->

<svg
   width="90"
   height="35"
   viewBox="0 0 90 35"
   version="1.1"
   id="svg1"
   xml:space="preserve"
   xmlns="http://www.w3.org/2000/svg"
   xmlns:svg="http://www.w3.org/2000/svg"><defs
     id="defs1" /><g
     id="layer1"><path
       id="path3"
       style="opacity:1;fill:#0095da;fill-opacity:1;stroke-width:5"
       d="M 55.781314,0.37590805 A 16.910268,17.191745 0 0 0 38.872534,17.568234 16.910268,17.191745 0 0 0 55.781314,34.760561 16.910268,17.191745 0 0 0 70.929656,25.146485 H 64.038853 A 10.908446,11.244105 0 0 1 55.87719,28.942749 10.908446,11.244105 0 0 1 44.969814,17.698788 10.908446,11.244105 0 0 1 55.87719,6.4527875 10.908446,11.244105 0 0 1 64.365238,10.638675 H 71.25196 A 16.910268,17.191745 0 0 0 55.781314,0.37590805 Z M 72.358517,1.155613 v 33.042394 h 17.506577 l -6.52e-4,-5.976924 h -11.57184 v -7.57825 H 89.422329 V 14.580234 H 78.292602 V 7.0896992 H 89.854789 V 1.155613 Z M 0.2,1.155152 v 33.042395 h 18.491746 l 4.912094,-8.428891 h 8.814433 v 8.428891 h 5.976924 V 1.155152 H 32.981286 L 15.529892,28.220623 H 6.1340861 v -7.57825 H 17.263812 V 14.579772 H 6.1340861 V 7.0892381 H 17.696272 V 1.155152 Z m 32.218273,9.483523 v 9.06738 h -5.283357 z" /></g></svg>
